<?xml version="1.0" encoding="UTF-8" standalone="no"?>
<svg
   enable-background="new 0 0 512 512"
   height="512"
   viewBox="0 0 512 512"
   width="512"
   version="1.1"
   id="svg18"
   sodipodi:docname="gpmf.svg"
   inkscape:version="1.1.1 (3bf5ae0d25, 2021-09-20)"
   xmlns:inkscape="http://www.inkscape.org/namespaces/inkscape"
   xmlns:sodipodi="http://sodipodi.sourceforge.net/DTD/sodipodi-0.dtd"
   xmlns="http://www.w3.org/2000/svg"
   xmlns:svg="http://www.w3.org/2000/svg">
  <defs
     id="defs22" />
  <sodipodi:namedview
     id="namedview20"
     pagecolor="#ffffff"
     bordercolor="#666666"
     borderopacity="1.0"
     inkscape:pageshadow="2"
     inkscape:pageopacity="0.0"
     inkscape:pagecheckerboard="0"
     showgrid="false"
     inkscape:zoom="1.7050781"
     inkscape:cx="229.60825"
     inkscape:cy="256"
     inkscape:window-width="2560"
     inkscape:window-height="1369"
     inkscape:window-x="2552"
     inkscape:window-y="-8"
     inkscape:window-maximized="1"
     inkscape:current-layer="svg18" />
  <g
     id="XMLID_3195_"
     inkscape:export-filename="C:\Users\shawn\SourceData\gpx\gpmf.png"
     inkscape:export-xdpi="25.6"
     inkscape:export-ydpi="25.6">
    <g
       id="XMLID_3228_">
      <path
         id="XMLID_1319_"
         d="m 466,106 v 350 c 0,16.57 -13.43,30 -30,30 H 156 c -16.57,0 -30,-13.43 -30,-30 0,-12.782 0,-379.414 0,-400 0,-16.57 13.43,-30 30,-30 h 230 l 20,60 z"
         fill="#fff5f5" />
      <path
         id="XMLID_1318_"
         d="m 126,186 v 60 H 76 c -16.56,0 -30,-13.439 -30,-30 0,-16.57 13.43,-30 30,-30 z"
         fill="#ff884d" />
      <path
         id="XMLID_3240_"
         d="m 434.18099,271 v 120 c 0,13.81 -11.19,25 -25,25 H 90.33 C 65.85,416 46,396.15 46,371.67 V 216 c 0,16.56 13.439,30 30,30 h 333.18099 c 13.81,0 25,11.19 25,25 z"
         fill="#ffbb33"
         sodipodi:nodetypes="ssssscsss" />
      <path
         id="XMLID_1316_"
         d="M 466,106 H 386 V 26 Z"
         fill="#d3cbe4" />
      <g
         id="XMLID_3229_">
        <path
           id="XMLID_3233_"
           d="m 473.071,98.929 -80,-80 C 391.217,17.075 388.658,16 386,16 H 156 c -22.056,0 -40,17.944 -40,40 V 176 H 76 c -22.056,0 -40,17.944 -40,40 V 371.67 C 36,401.628 60.372,426 90.33,426 H 116 v 30 c 0,22.056 17.944,40 40,40 h 280 c 22.056,0 40,-17.944 40,-40 V 106 c 0,-2.666 -1.078,-5.223 -2.929,-7.071 z M 396,50.143 441.858,96 H 396 Z M 76,196 h 40 v 40 H 76 c -11.045,0 -20,-8.954 -20,-20 0,-11.028 8.972,-20 20,-20 z M 90.33,406 C 71.400031,406.03413 56,390.6 56,371.67 V 250.645 c 6.016,3.488 12.863011,5.36732 20,5.355 l 339.6323,-0.58648 c 8.27099,-0.0143 15,6.729 15,15 v 120 c 0,8.272 -6.72901,14.98508 -15,15 z M 456,456 c 0,11.028 -8.972,20 -20,20 H 156 c -11.028,0 -20,-8.972 -20,-20 v -30 l 279.6323,-0.58648 c 19.29896,-0.0405 35,-15.701 35,-35 v -120 c 0,-19.299 -15.70104,-35.04048 -35,-35 L 136,236 V 56 c 0,-11.028 8.972,-20 20,-20 h 220 v 70 c 0,5.523 4.477,10 10,10 h 70 z"
           sodipodi:nodetypes="csssscsssscssssscccccsccssssscsssssssssscsssscsscsscs" />
        <path
           id="XMLID_1310_"
           d="m 176,106 h 80 c 5.522,0 10,-4.477 10,-10 0,-5.523 -4.478,-10 -10,-10 h -80 c -5.523,0 -10,4.477 -10,10 0,5.523 4.477,10 10,10 z" />
        <path
           id="XMLID_1309_"
           d="M 336,126 H 176 c -5.523,0 -10,4.477 -10,10 0,5.523 4.477,10 10,10 h 160 c 5.522,0 10,-4.477 10,-10 0,-5.523 -4.478,-10 -10,-10 z" />
        <path
           id="XMLID_1308_"
           d="M 336,166 H 176 c -5.523,0 -10,4.477 -10,10 0,5.523 4.477,10 10,10 h 160 c 5.522,0 10,-4.477 10,-10 0,-5.523 -4.478,-10 -10,-10 z" />
      </g>
    </g>
    <g
       id="XMLID_3201_" />
  </g>
  <text
     xml:space="preserve"
     style="font-style:normal;font-weight:normal;font-size:85.3333px;line-height:1.25;font-family:sans-serif;fill:#000000;fill-opacity:1;stroke:none"
     x="98.529213"
     y="309.07675"
     id="text15612"><tspan
       sodipodi:role="line"
       id="tspan15610"
       x="98.529213"
       y="309.07675" /></text>
  <text
     xml:space="preserve"
     style="font-style:normal;font-weight:normal;font-size:96px;line-height:1.25;font-family:sans-serif;fill:#000000;fill-opacity:1;stroke:none"
     x="100.28866"
     y="343.09277"
     id="text20192"><tspan
       sodipodi:role="line"
       id="tspan20190"
       x="100.28866"
       y="343.09277" /></text>
  <text
     xml:space="preserve"
     style="font-style:normal;font-variant:normal;font-weight:normal;font-stretch:normal;font-size:128px;line-height:1.25;font-family:'Arial Rounded MT Bold';-inkscape-font-specification:'Arial Rounded MT Bold, Normal';font-variant-ligatures:normal;font-variant-caps:normal;font-variant-numeric:normal;font-variant-east-asian:normal;fill:#000000;fill-opacity:1;stroke:none"
     x="56.167236"
     y="375.83047"
     id="text24948"><tspan
       sodipodi:role="line"
       id="tspan24946"
       x="56.167236"
       y="375.83047"
       style="font-style:normal;font-variant:normal;font-weight:normal;font-stretch:normal;font-size:128px;font-family:'Arial Rounded MT Bold';-inkscape-font-specification:'Arial Rounded MT Bold, Normal';font-variant-ligatures:normal;font-variant-caps:normal;font-variant-numeric:normal;font-variant-east-asian:normal">GPMF</tspan></text>
</svg>
